name analog
datacolumns 19
datarows 85
range 0.507 0.549
endheader
time	ground_force_vx	ground_force_vy	ground_force_vz	ground_force_px	ground_force_py	ground_force_pz	l_ground_force_vx	l_ground_force_vy	l_ground_force_vz	l_ground_force_px	l_ground_force_py	l_ground_force_pz	ground_torque_x	ground_torque_y	ground_torque_z	l_ground_torque_x	l_ground_torque_y	l_ground_torque_z
0.507	-0.0	-0.0	-0.0	11.61082935333252	29.52906608581543	-798.106689453125	-0.0	-0.0	-0.0	-0.0	-0.0	-0.0	-0.0	-0.0	-0.0	-0.0	-0.0	-0.0
0.5075000000000001	-0.0	-0.0	-0.0	12.270814895629885	30.660858154296875	-798.999267578125	-0.0	-0.0	-0.0	-0.0	-0.0	-0.0	-0.0	-0.0	-0.0	-0.0	-0.0	-0.0
0.508	-0.0	-0.0	-0.0	12.016740798950195	30.16605758666992	-800.9856567382812	-0.0	-0.0	-0.0	-0.0	-0.0	-0.0	-0.0	-0.0	-0.0	-0.0	-0.0	-0.0
0.5085000000000001	-0.0	-0.0	-0.0	11.775787353515623	30.680740356445312	-803.2362670898438	-0.0	-0.0	-0.0	-0.0	-0.0	-0.0	-0.0	-0.0	-0.0	-0.0	-0.0	-0.0
0.509	-0.0	-0.0	-0.0	12.373831748962402	31.304574966430664	-806.2575073242188	-0.0	-0.0	-0.0	-0.0	-0.0	-0.0	-0.0	-0.0	-0.0	-0.0	-0.0	-0.0
0.5095000000000001	-0.0	-0.0	-0.0	12.902668952941896	32.78685760498047	-804.7000122070312	-0.0	-0.0	-0.0	-0.0	-0.0	-0.0	-0.0	-0.0	-0.0	-0.0	-0.0	-0.0
0.51	-0.0	-0.0	-0.0	13.420783042907717	33.6782341003418	-806.258056640625	-0.0	-0.0	-0.0	-0.0	-0.0	-0.0	-0.0	-0.0	-0.0	-0.0	-0.0	-0.0
0.5105000000000001	-0.0	-0.0	-0.0	14.273681640625	34.5064811706543	-804.2422485351562	-0.0	-0.0	-0.0	-0.0	-0.0	-0.0	-0.0	-0.0	-0.0	-0.0	-0.0	-0.0
0.511	-0.0	-0.0	-0.0	14.82189655303955	36.078407287597656	-801.1146240234375	-0.0	-0.0	-0.0	-0.0	-0.0	-0.0	-0.0	-0.0	-0.0	-0.0	-0.0	-0.0
0.5115000000000001	-0.0	-0.0	-0.0	14.732613563537598	36.74102783203125	-798.1356811523438	-0.0	-0.0	-0.0	-0.0	-0.0	-0.0	-0.0	-0.0	-0.0	-0.0	-0.0	-0.0
0.512	-0.0	-0.0	-0.0	15.210100173950195	37.35845947265625	-796.72314453125	-0.0	-0.0	-0.0	-0.0	-0.0	-0.0	-0.0	-0.0	-0.0	-0.0	-0.0	-0.0
0.5125	-0.0	-0.0	-0.0	15.7010498046875	38.21783065795898	-796.6729125976562	-0.0	-0.0	-0.0	-0.0	-0.0	-0.0	-0.0	-0.0	-0.0	-0.0	-0.0	-0.0
0.513	-0.0	-0.0	-0.0	16.070573806762695	39.440425872802734	-794.5042724609375	-0.0	-0.0	-0.0	-0.0	-0.0	-0.0	-0.0	-0.0	-0.0	-0.0	-0.0	-0.0
0.5135	-0.0	-0.0	-0.0	16.319217681884766	39.15974807739258	-794.3016357421875	-0.0	-0.0	-0.0	-0.0	-0.0	-0.0	-0.0	-0.0	-0.0	-0.0	-0.0	-0.0
0.514	-0.0	-0.0	-0.0	17.72777557373047	40.350982666015625	-796.0178833007812	-0.0	-0.0	-0.0	-0.0	-0.0	-0.0	-0.0	-0.0	-0.0	-0.0	-0.0	-0.0
0.5145	-0.0	-0.0	-0.0	16.516429901123047	40.23080825805664	-796.4207763671875	-0.0	-0.0	-0.0	-0.0	-0.0	-0.0	-0.0	-0.0	-0.0	-0.0	-0.0	-0.0
0.515	-0.0	-0.0	-0.0	15.987299919128418	39.59870147705078	-800.2566528320312	-0.0	-0.0	-0.0	-0.0	-0.0	-0.0	-0.0	-0.0	-0.0	-0.0	-0.0	-0.0
0.5155	-0.0	-0.0	-0.0	15.26735782623291	40.17311477661133	-802.7534790039062	-0.0	-0.0	-0.0	-0.0	-0.0	-0.0	-0.0	-0.0	-0.0	-0.0	-0.0	-0.0
0.516	-0.0	-0.0	-0.0	15.27957248687744	39.84129333496094	-804.2150268554688	-0.0	-0.0	-0.0	-0.0	-0.0	-0.0	-0.0	-0.0	-0.0	-0.0	-0.0	-0.0
0.5165	-0.0	-0.0	-0.0	15.2672119140625	39.66303253173828	-806.0291748046875	-0.0	-0.0	-0.0	-0.0	-0.0	-0.0	-0.0	-0.0	-0.0	-0.0	-0.0	-0.0
0.517	-0.0	-0.0	-0.0	15.147541999816896	38.96821594238281	-810.5961303710938	-0.0	-0.0	-0.0	-0.0	-0.0	-0.0	-0.0	-0.0	-0.0	-0.0	-0.0	-0.0
0.5175	-0.0	-0.0	-0.0	15.24895191192627	39.59659576416016	-811.3021240234375	-0.0	-0.0	-0.0	-0.0	-0.0	-0.0	-0.0	-0.0	-0.0	-0.0	-0.0	-0.0
0.518	-0.0	-0.0	-0.0	15.3381986618042	38.85485076904297	-815.845703125	-0.0	-0.0	-0.0	-0.0	-0.0	-0.0	-0.0	-0.0	-0.0	-0.0	-0.0	-0.0
0.5185	-0.0	-0.0	-0.0	15.070590019226074	39.12226867675781	-814.8809204101562	-0.0	-0.0	-0.0	-0.0	-0.0	-0.0	-0.0	-0.0	-0.0	-0.0	-0.0	-0.0
0.519	-0.0	-0.0	-0.0	15.593988418579102	39.64519882202149	-818.0118408203125	-0.0	-0.0	-0.0	-0.0	-0.0	-0.0	-0.0	-0.0	-0.0	-0.0	-0.0	-0.0
0.5195	-0.0	-0.0	-0.0	16.319610595703125	39.92451095581055	-819.0008544921875	-0.0	-0.0	-0.0	-0.0	-0.0	-0.0	-0.0	-0.0	-0.0	-0.0	-0.0	-0.0
0.52	-0.0	-0.0	-0.0	15.373648643493652	40.459320068359375	-820.766845703125	-0.0	-0.0	-0.0	-0.0	-0.0	-0.0	-0.0	-0.0	-0.0	-0.0	-0.0	-0.0
0.5205	-0.0	-0.0	-0.0	15.260848999023438	40.459354400634766	-822.22607421875	-0.0	-0.0	-0.0	-0.0	-0.0	-0.0	-0.0	-0.0	-0.0	-0.0	-0.0	-0.0
0.521	-0.0	-0.0	-0.0	14.998995780944824	40.66670227050781	-822.9093017578125	-0.0	-0.0	-0.0	-0.0	-0.0	-0.0	-0.0	-0.0	-0.0	-0.0	-0.0	-0.0
0.5215	-0.0	-0.0	-0.0	14.535533905029297	40.94550323486328	-824.9825439453125	-0.0	-0.0	-0.0	-0.0	-0.0	-0.0	-0.0	-0.0	-0.0	-0.0	-0.0	-0.0
0.522	-0.0	-0.0	-0.0	14.518301010131836	41.35359573364258	-823.3079833984375	-0.0	-0.0	-0.0	-0.0	-0.0	-0.0	-0.0	-0.0	-0.0	-0.0	-0.0	-0.0
0.5225	-0.0	-0.0	-0.0	14.518446922302246	42.71631240844727	-823.5929565429688	-0.0	-0.0	-0.0	-0.0	-0.0	-0.0	-0.0	-0.0	-0.0	-0.0	-0.0	-0.0
0.523	-0.0	-0.0	-0.0	14.535633087158203	43.32305145263672	-822.225341796875	-0.0	-0.0	-0.0	-0.0	-0.0	-0.0	-0.0	-0.0	-0.0	-0.0	-0.0	-0.0
0.5235	-0.0	-0.0	-0.0	14.190125465393066	44.05866622924805	-819.7529907226562	-0.0	-0.0	-0.0	-0.0	-0.0	-0.0	-0.0	-0.0	-0.0	-0.0	-0.0	-0.0
0.524	-0.0	-0.0	-0.0	14.161998748779297	44.95539855957031	-819.0242919921875	-0.0	-0.0	-0.0	-0.0	-0.0	-0.0	-0.0	-0.0	-0.0	-0.0	-0.0	-0.0
0.5245	-0.0	-0.0	-0.0	13.61581325531006	45.87985610961914	-818.53857421875	-0.0	-0.0	-0.0	-0.0	-0.0	-0.0	-0.0	-0.0	-0.0	-0.0	-0.0	-0.0
0.525	-0.0	-0.0	-0.0	14.374004364013672	46.77125930786133	-813.74853515625	-0.0	-0.0	-0.0	-0.0	-0.0	-0.0	-0.0	-0.0	-0.0	-0.0	-0.0	-0.0
0.5255	-0.0	-0.0	-0.0	15.43893814086914	46.73190307617188	-813.3297119140625	-0.0	-0.0	-0.0	-0.0	-0.0	-0.0	-0.0	-0.0	-0.0	-0.0	-0.0	-0.0
0.526	-0.0	-0.0	-0.0	15.863021850585938	47.42832946777344	-809.13525390625	-0.0	-0.0	-0.0	-0.0	-0.0	-0.0	-0.0	-0.0	-0.0	-0.0	-0.0	-0.0
0.5265	-0.0	-0.0	-0.0	15.717432022094728	47.49559783935547	-808.7172241210938	-0.0	-0.0	-0.0	-0.0	-0.0	-0.0	-0.0	-0.0	-0.0	-0.0	-0.0	-0.0
0.527	-0.0	-0.0	-0.0	16.34722137451172	47.40653610229492	-806.309814453125	-0.0	-0.0	-0.0	-0.0	-0.0	-0.0	-0.0	-0.0	-0.0	-0.0	-0.0	-0.0
0.5275	-0.0	-0.0	-0.0	16.88233757019043	47.62255096435547	-805.1649169921875	-0.0	-0.0	-0.0	-0.0	-0.0	-0.0	-0.0	-0.0	-0.0	-0.0	-0.0	-0.0
0.528	-0.0	-0.0	-0.0	17.49598503112793	47.73103332519531	-802.38232421875	-0.0	-0.0	-0.0	-0.0	-0.0	-0.0	-0.0	-0.0	-0.0	-0.0	-0.0	-0.0
0.5285	-0.0	-0.0	-0.0	18.151010513305664	47.852386474609375	-799.5783081054688	-0.0	-0.0	-0.0	-0.0	-0.0	-0.0	-0.0	-0.0	-0.0	-0.0	-0.0	-0.0
0.529	-0.0	-0.0	-0.0	18.7394962310791	47.57978057861328	-797.8963012695312	-0.0	-0.0	-0.0	-0.0	-0.0	-0.0	-0.0	-0.0	-0.0	-0.0	-0.0	-0.0
0.5295	-0.0	-0.0	-0.0	19.106809616088867	48.09367370605469	-798.8514404296875	-0.0	-0.0	-0.0	-0.0	-0.0	-0.0	-0.0	-0.0	-0.0	-0.0	-0.0	-0.0
0.53	-0.0	-0.0	-0.0	19.862579345703125	47.86825180053711	-800.2023315429688	-0.0	-0.0	-0.0	-0.0	-0.0	-0.0	-0.0	-0.0	-0.0	-0.0	-0.0	-0.0
0.5305	-0.0	-0.0	-0.0	19.56305503845215	48.39781188964844	-797.5009155273438	-0.0	-0.0	-0.0	-0.0	-0.0	-0.0	-0.0	-0.0	-0.0	-0.0	-0.0	-0.0
0.531	-0.0	-0.0	-0.0	20.43436050415039	48.49723815917969	-796.8351440429688	-0.0	-0.0	-0.0	-0.0	-0.0	-0.0	-0.0	-0.0	-0.0	-0.0	-0.0	-0.0
0.5315	-0.0	-0.0	-0.0	21.04342269897461	49.330108642578125	-795.7549438476562	-0.0	-0.0	-0.0	-0.0	-0.0	-0.0	-0.0	-0.0	-0.0	-0.0	-0.0	-0.0
0.532	-0.0	-0.0	-0.0	21.504825592041016	50.195682525634766	-794.32177734375	-0.0	-0.0	-0.0	-0.0	-0.0	-0.0	-0.0	-0.0	-0.0	-0.0	-0.0	-0.0
0.5325	-0.0	-0.0	-0.0	21.04862403869629	50.53189086914063	-793.5552978515625	-0.0	-0.0	-0.0	-0.0	-0.0	-0.0	-0.0	-0.0	-0.0	-0.0	-0.0	-0.0
0.533	-0.0	-0.0	-0.0	21.816307067871094	50.89849090576172	-793.1624755859375	-0.0	-0.0	-0.0	-0.0	-0.0	-0.0	-0.0	-0.0	-0.0	-0.0	-0.0	-0.0
0.5335	-0.0	-0.0	-0.0	21.683151245117188	51.517372131347656	-789.0633544921875	-0.0	-0.0	-0.0	-0.0	-0.0	-0.0	-0.0	-0.0	-0.0	-0.0	-0.0	-0.0
0.534	-0.0	-0.0	-0.0	22.213417053222656	51.63128662109375	-788.984375	-0.0	-0.0	-0.0	-0.0	-0.0	-0.0	-0.0	-0.0	-0.0	-0.0	-0.0	-0.0
0.5345	-0.0	-0.0	-0.0	23.10552215576172	52.31461715698242	-789.318115234375	-0.0	-0.0	-0.0	-0.0	-0.0	-0.0	-0.0	-0.0	-0.0	-0.0	-0.0	-0.0
0.535	-0.0	-0.0	-0.0	23.30353736877441	52.70054244995117	-789.5357666015625	-0.0	-0.0	-0.0	-0.0	-0.0	-0.0	-0.0	-0.0	-0.0	-0.0	-0.0	-0.0
0.5355	-0.0	-0.0	-0.0	23.436359405517575	53.2205696105957	-784.1557006835938	-0.0	-0.0	-0.0	-0.0	-0.0	-0.0	-0.0	-0.0	-0.0	-0.0	-0.0	-0.0
0.536	-0.0	-0.0	-0.0	24.622100830078125	54.01785659790039	-783.2191162109375	-0.0	-0.0	-0.0	-0.0	-0.0	-0.0	-0.0	-0.0	-0.0	-0.0	-0.0	-0.0
0.5365	-0.0	-0.0	-0.0	25.69742774963379	54.45867919921875	-778.0364379882812	-0.0	-0.0	-0.0	-0.0	-0.0	-0.0	-0.0	-0.0	-0.0	-0.0	-0.0	-0.0
0.537	-0.0	-0.0	-0.0	26.13867950439453	54.7355842590332	-775.154541015625	-0.0	-0.0	-0.0	-0.0	-0.0	-0.0	-0.0	-0.0	-0.0	-0.0	-0.0	-0.0
0.5375	-0.0	-0.0	-0.0	26.67867088317871	55.44855499267578	-771.567138671875	-0.0	-0.0	-0.0	-0.0	-0.0	-0.0	-0.0	-0.0	-0.0	-0.0	-0.0	-0.0
0.538	-0.0	-0.0	-0.0	27.303117752075195	55.795631408691406	-765.9913940429688	-0.0	-0.0	-0.0	-0.0	-0.0	-0.0	-0.0	-0.0	-0.0	-0.0	-0.0	-0.0
0.5385	-0.0	-0.0	-0.0	27.9182243347168	55.98787307739258	-758.5935668945312	-0.0	-0.0	-0.0	-0.0	-0.0	-0.0	-0.0	-0.0	-0.0	-0.0	-0.0	-0.0
0.539	-0.0	-0.0	-0.0	28.59029006958008	57.05733108520508	-754.5439453125	-0.0	-0.0	-0.0	-0.0	-0.0	-0.0	-0.0	-0.0	-0.0	-0.0	-0.0	-0.0
0.5395	-0.0	-0.0	-0.0	28.38274955749512	57.404579162597656	-746.4766845703125	-0.0	-0.0	-0.0	-0.0	-0.0	-0.0	-0.0	-0.0	-0.0	-0.0	-0.0	-0.0
0.54	-0.0	-0.0	-0.0	28.956886291503903	57.91651153564453	-742.8917236328125	-0.0	-0.0	-0.0	-0.0	-0.0	-0.0	-0.0	-0.0	-0.0	-0.0	-0.0	-0.0
0.5405	-0.0	-0.0	-0.0	28.195051193237305	57.83658218383789	-739.7864379882812	-0.0	-0.0	-0.0	-0.0	-0.0	-0.0	-0.0	-0.0	-0.0	-0.0	-0.0	-0.0
0.541	-0.0	-0.0	-0.0	28.114824295043945	57.9572639465332	-734.5250854492188	-0.0	-0.0	-0.0	-0.0	-0.0	-0.0	-0.0	-0.0	-0.0	-0.0	-0.0	-0.0
0.5415	-0.0	-0.0	-0.0	28.904205322265625	58.2734260559082	-733.71337890625	-0.0	-0.0	-0.0	-0.0	-0.0	-0.0	-0.0	-0.0	-0.0	-0.0	-0.0	-0.0
0.542	-0.0	-0.0	-0.0	29.247753143310547	59.0846061706543	-731.3303833007812	-0.0	-0.0	-0.0	-0.0	-0.0	-0.0	-0.0	-0.0	-0.0	-0.0	-0.0	-0.0
0.5425	-0.0	-0.0	-0.0	29.18065643310547	59.36084747314453	-726.5260009765625	-0.0	-0.0	-0.0	-0.0	-0.0	-0.0	-0.0	-0.0	-0.0	-0.0	-0.0	-0.0
0.543	-0.0	-0.0	-0.0	29.189329147338867	59.65445709228516	-724.389404296875	-0.0	-0.0	-0.0	-0.0	-0.0	-0.0	-0.0	-0.0	-0.0	-0.0	-0.0	-0.0
0.5435	-0.0	-0.0	-0.0	29.524341583251957	60.42607879638672	-720.53857421875	-0.0	-0.0	-0.0	-0.0	-0.0	-0.0	-0.0	-0.0	-0.0	-0.0	-0.0	-0.0
0.544	-0.0	-0.0	-0.0	29.626510620117188	60.44763946533203	-718.9548950195312	-0.0	-0.0	-0.0	-0.0	-0.0	-0.0	-0.0	-0.0	-0.0	-0.0	-0.0	-0.0
0.5445	-0.0	-0.0	-0.0	29.71992301940918	61.05432891845703	-715.104736328125	-0.0	-0.0	-0.0	-0.0	-0.0	-0.0	-0.0	-0.0	-0.0	-0.0	-0.0	-0.0
0.545	-0.0	-0.0	-0.0	29.855854034423828	61.41508483886719	-709.5048828125	-0.0	-0.0	-0.0	-0.0	-0.0	-0.0	-0.0	-0.0	-0.0	-0.0	-0.0	-0.0
0.5455	-0.0	-0.0	-0.0	29.45207405090332	61.86909484863281	-705.9069213867188	-0.0	-0.0	-0.0	-0.0	-0.0	-0.0	-0.0	-0.0	-0.0	-0.0	-0.0	-0.0
0.546	-0.0	-0.0	-0.0	29.94550132751465	63.03605651855469	-701.2831420898438	-0.0	-0.0	-0.0	-0.0	-0.0	-0.0	-0.0	-0.0	-0.0	-0.0	-0.0	-0.0
0.5465	-0.0	-0.0	-0.0	29.1594181060791	63.651512145996094	-698.1055908203125	-0.0	-0.0	-0.0	-0.0	-0.0	-0.0	-0.0	-0.0	-0.0	-0.0	-0.0	-0.0
0.547	-0.0	-0.0	-0.0	28.53505516052246	64.57140350341797	-695.6670532226562	-0.0	-0.0	-0.0	-0.0	-0.0	-0.0	-0.0	-0.0	-0.0	-0.0	-0.0	-0.0
0.5475	-0.0	-0.0	-0.0	28.1619815826416	64.67249298095703	-691.5263671875	-0.0	-0.0	-0.0	-0.0	-0.0	-0.0	-0.0	-0.0	-0.0	-0.0	-0.0	-0.0
0.548	-0.0	-0.0	-0.0	27.217287063598636	65.53507232666016	-689.9536743164062	-0.0	-0.0	-0.0	-0.0	-0.0	-0.0	-0.0	-0.0	-0.0	-0.0	-0.0	-0.0
0.5485	-0.0	-0.0	-0.0	26.85636711120605	66.41815185546875	-685.7645263671875	-0.5401886701583862	0.127270221710205	-1.282150149345398	-0.0	-0.0	-0.0	-0.0	-0.0	-0.0	346.7749328613281	94.84143829345705	-103.76823425292967
0.549	-0.0	-0.0	-0.0	26.313121795654297	67.67780303955078	-678.474365234375	-27.234210968017575	5.115458965301514	-57.17547225952149	-0.0	-0.0	-0.0	-0.0	-0.0	-0.0	15303.404296875	6381.59521484375	-6181.82177734375
